<svg width="306" height="210" viewBox="0 0 306 210" fill="none" xmlns="http://www.w3.org/2000/svg">
<path d="M170.903 153.401C172.602 154.08 174.3 154.76 176.051 155.46C175.15 161.38 175.15 161.38 173.992 163.696C175.351 164.036 176.71 164.376 178.11 164.726C178.11 165.405 178.11 166.085 178.11 166.785C177.175 166.785 176.241 166.785 175.278 166.785C171.602 167.522 171.602 167.522 169.745 171.225C167.329 176.797 165.511 182.614 163.696 188.405C173.018 183.108 176.781 175.294 181.198 165.755C182.557 165.755 183.916 165.755 185.316 165.755C186.393 169.122 186.47 170.595 185.131 173.927C184.555 174.968 183.979 176.008 183.386 177.08C181.292 180.898 179.76 184.077 179.139 188.405C185.552 183.997 188.419 178.955 191.657 172.055C194.104 167.014 194.104 167.014 196.758 165.743C198.7 165.755 198.7 165.755 200.759 166.785C200.759 168.144 200.759 169.503 200.759 170.903C201.22 170.457 201.68 170.011 202.155 169.552C207.257 164.852 207.257 164.852 210.862 164.211C213.114 164.726 213.114 164.726 215.173 166.785C215.799 171.34 214.281 174.206 212.149 178.174C209.511 183.088 209.511 183.088 207.966 188.405C212.619 185.227 214.962 182.099 217.682 177.145C220.547 172.039 223.232 167.494 228.557 164.726C232.575 164.257 235.037 164.483 238.852 165.755C240.223 166.108 241.595 166.453 242.97 166.785C244.72 171.839 242.903 175.288 240.718 179.847C240.037 181.32 239.357 182.793 238.679 184.267C238.35 184.977 238.02 185.688 237.68 186.42C236.561 188.924 235.647 191.483 234.734 194.068C232.487 199.802 228.732 205.029 223.349 208.175C220.8 209.222 218.935 209.276 216.202 208.996C215.183 208.316 214.164 207.637 213.114 206.937C212.792 203.848 212.792 203.848 213.114 200.76C214.133 199.74 214.133 199.74 215.173 198.7C217.361 199.087 217.361 199.087 219.291 199.73C218.951 201.089 218.612 202.448 218.262 203.848C222.976 202.34 224.563 198.554 226.755 194.454C227.129 193.775 227.504 193.097 227.889 192.399C228.808 190.73 229.714 189.053 230.616 187.376C229.978 188.027 229.339 188.679 228.682 189.35C226.563 191.43 225.179 192.62 222.38 193.553C219.742 193.424 219.742 193.424 217.232 192.523C215.366 190.4 215.366 190.4 214.143 188.405C213.421 189.085 212.699 189.764 211.956 190.464C208.524 192.851 206.909 193.069 202.819 192.523C200.759 190.464 200.759 190.464 200.438 187.657C200.814 183.72 201.993 181.202 203.848 177.724C204.421 176.633 204.995 175.542 205.585 174.418C206.031 173.598 206.477 172.778 206.937 171.933C199.031 177.483 195.097 185.296 190.464 193.553C189.678 193.213 188.893 192.873 188.083 192.523C185.326 191.314 185.326 191.314 182.228 191.494C181.209 192.173 180.189 192.853 179.139 193.553C176.07 193.323 174.471 192.937 172.125 190.915C171.722 190.426 171.319 189.938 170.903 189.435C169.82 190.135 168.737 190.836 167.621 191.558C164.825 193.178 164 193.579 160.672 193.295C159.621 192.913 159.621 192.913 158.548 192.523C158.209 190.825 157.869 189.126 157.519 187.376C156.846 187.933 156.846 187.933 156.16 188.502C152.968 190.989 150.991 192.434 146.902 192.974C144.135 192.523 144.135 192.523 142.076 190.464C141.491 185.361 142.78 182.194 145.165 177.724C145.738 176.633 146.311 175.542 146.902 174.418C147.348 173.598 147.794 172.778 148.253 171.933C143.968 174.137 141.912 176.316 139.438 180.426C138.83 181.426 138.222 182.425 137.596 183.454C135.629 186.806 133.668 190.155 131.781 193.553C130.57 193.043 130.57 193.043 129.335 192.523C126.794 191.372 126.794 191.372 124.574 191.494C123.958 191.855 123.342 192.216 122.708 192.588C119.771 193.846 118.31 193.524 115.308 192.523C113.442 190.915 113.442 190.915 112.219 189.435C111.689 189.944 111.158 190.454 110.611 190.979C107.271 193.034 104.743 192.745 100.894 192.523C100.215 190.825 99.5355 189.126 98.8354 187.376C97.4977 188.618 97.4977 188.618 96.1329 189.885C93.0404 192.492 90.5662 193.261 86.481 193.553C84.1432 191.118 83.4162 189.583 82.8776 186.217C83.9553 177.865 88.0587 171.241 94.5886 165.972C98.2741 163.872 100.849 164.161 105.013 164.726C106.032 165.066 107.051 165.405 108.101 165.755C109.814 166.114 111.53 166.46 113.249 166.785C112.679 171.552 111.365 175.096 109.131 179.332C107.542 182.368 106.096 185.154 105.013 188.405C114.826 183.498 118.417 174.39 122.515 164.726C123.874 165.066 125.233 165.405 126.633 165.755C127.923 168.788 127.66 169.88 126.448 173.022C125.872 174.17 125.296 175.318 124.703 176.501C122.712 180.496 121.102 183.973 120.456 188.405C126.053 184.37 128.744 180.126 131.781 173.992C132.188 173.19 132.595 172.388 133.015 171.563C133.99 169.634 134.946 167.695 135.899 165.755C138.447 166.265 138.447 166.265 141.046 166.785C140.707 169.163 140.367 171.541 140.017 173.992C140.427 173.495 140.837 172.999 141.26 172.488C141.805 171.837 142.35 171.187 142.912 170.517C143.45 169.872 143.987 169.227 144.541 168.562C146.833 166.098 148.533 164.799 151.921 164.468C154.43 164.726 154.43 164.726 156.489 166.785C156.35 172.236 153.824 176.806 151.503 181.625C150.482 183.906 149.786 185.967 149.283 188.405C156.978 183.065 159.952 176.121 163.696 167.814C162.677 167.475 161.658 167.135 160.608 166.785C160.608 165.766 160.608 164.746 160.608 163.696C162.646 163.696 164.685 163.696 166.785 163.696C166.891 162.953 166.997 162.21 167.107 161.444C167.876 158.296 169.133 156.095 170.903 153.401Z" fill="#D6D5D1"/>
<path d="M93.6877 6.17725C97.2682 7.78344 100.145 9.91623 103.211 12.3545C104.129 13.0764 105.048 13.7984 105.994 14.5422C106.689 15.1792 107.385 15.8163 108.101 16.4726C108.101 17.1521 108.101 17.8316 108.101 18.5317C108.684 18.7852 109.266 19.0386 109.867 19.2998C112.623 20.8125 114.619 22.6267 116.917 24.7732C120.56 28.1178 124.26 31.3233 128.113 34.4251C132.029 37.5918 135.797 40.8598 139.502 44.2701C143.999 48.4047 148.633 52.2941 153.385 56.1298C157.731 59.7047 161.959 63.4098 166.198 67.1101C170.986 71.2783 175.856 75.3156 180.82 79.2743C183.484 81.525 185.939 84.015 188.405 86.481C176.854 86.481 165.302 86.481 153.401 86.481C153.401 84.1028 153.401 81.7246 153.401 79.2743C157.138 78.9345 160.875 78.5948 164.726 78.2447C163.852 77.4962 162.979 76.7477 162.079 75.9765C161.503 75.4826 160.927 74.9886 160.333 74.4797C159.041 73.3721 157.749 72.2647 156.456 71.1574C153.149 68.3237 149.843 65.4878 146.544 62.6449C140.263 57.2375 133.937 51.9069 127.502 46.683C123.459 43.3513 119.497 39.9295 115.53 36.5086C110.792 32.4316 105.977 28.4643 101.108 24.544C99.2075 22.96 97.4547 21.347 95.7468 19.5612C91.5669 21.2943 88.424 24.2059 85.0654 27.154C83.7705 28.2775 82.4755 29.4009 81.1805 30.5242C80.5212 31.0985 79.862 31.6728 79.1827 32.2645C76.1388 34.9102 73.0732 37.5305 70.0084 40.1519C68.8072 41.1813 67.606 42.2109 66.405 43.2405C59.1983 49.4177 59.1983 49.4177 57.3951 50.9633C56.1989 51.9886 55.0028 53.0139 53.8068 54.0393C50.7282 56.6786 47.6487 59.3167 44.5676 61.9531C38.2616 67.3506 31.9698 72.7611 25.7384 78.2447C31.8538 78.5845 37.9693 78.9242 44.27 79.2743C44.27 81.6525 44.27 84.0307 44.27 86.481C30.3404 86.481 16.4108 86.481 2.05905 86.481C8.74983 79.7902 15.6696 73.5031 23.0358 67.5633C27.7239 63.7732 32.1584 59.7875 36.5681 55.6839C40.7762 51.7911 45.1764 48.1856 49.6429 44.5918C53.301 41.5503 56.7688 38.3305 60.2502 35.0905C63.5563 32.0318 66.9469 29.1363 70.4588 26.3175C75.5265 22.2443 80.295 17.9139 85.0249 13.4586C87.8023 10.8509 90.5769 8.38107 93.6877 6.17725Z" fill="#007BCA"/>
<path d="M222.38 92.6582C228.495 92.6582 234.611 92.6582 240.911 92.6582C240.911 109.306 240.911 125.953 240.911 143.105C236.495 143.105 232.078 143.105 227.527 143.105C227.188 132.573 226.848 122.041 226.498 111.19C223.992 115.691 221.487 120.193 218.905 124.831C218.118 126.245 217.33 127.659 216.519 129.115C215.897 130.234 215.275 131.352 214.634 132.504C213.68 134.219 213.68 134.219 212.706 135.968C211.416 138.327 210.173 140.689 208.996 143.105C203.776 143.781 203.776 143.781 200.759 143.105C198.338 140.874 197.022 138.171 195.547 135.255C195.12 134.47 194.692 133.685 194.251 132.877C192.952 130.47 191.703 128.042 190.464 125.603C190.082 124.863 189.699 124.123 189.305 123.36C187.227 119.329 185.235 115.274 183.257 111.19C182.918 121.722 182.578 132.254 182.228 143.105C178.151 143.105 174.074 143.105 169.873 143.105C169.873 126.798 169.873 110.49 169.873 93.6877C175.989 93.6877 182.104 93.6877 188.405 93.6877C190.586 97.7553 192.766 101.823 194.946 105.891C195.688 107.275 196.43 108.659 197.172 110.043C198.238 112.031 199.304 114.019 200.369 116.008C201.011 117.205 201.653 118.402 202.314 119.635C203.186 121.272 204.048 122.915 204.878 124.574C210.193 115.293 215.315 105.979 219.999 96.3621C221.35 93.6877 221.35 93.6877 222.38 92.6582Z" fill="#007BCB"/>
<path d="M193.553 10.2954C196.207 12.1252 196.207 12.1252 198.958 14.3492C199.876 15.0804 200.795 15.8117 201.741 16.5651C202.436 17.2141 203.132 17.863 203.848 18.5317C203.848 19.2112 203.848 19.8907 203.848 20.5907C204.451 20.8621 205.054 21.1334 205.675 21.4129C208.063 22.7023 209.719 24.0944 211.674 25.9676C212.348 26.6067 213.023 27.2457 213.717 27.9041C214.41 28.5696 215.103 29.2352 215.816 29.9209C217.201 31.2434 218.587 32.564 219.975 33.8822C220.585 34.4676 221.195 35.0529 221.823 35.656C223.38 37.1599 223.38 37.1599 225.468 38.0928C225.468 38.7723 225.468 39.4518 225.468 40.1519C226.079 40.424 226.689 40.696 227.318 40.9763C229.669 42.256 231.104 43.5535 232.932 45.4926C235.496 48.1385 238.116 50.6211 240.911 53.0211C243.708 55.4565 246.5 57.8918 249.212 60.4209C249.818 60.977 250.425 61.533 251.05 62.106C252.236 63.8312 252.236 63.8312 252.039 65.9104C251.207 67.9494 251.207 67.9494 249.148 71.038C246.098 70.4071 244.638 69.7472 241.941 67.9494C241.941 67.2699 241.941 66.5904 241.941 65.8903C241.373 65.6501 240.805 65.4099 240.22 65.1624C237.192 63.481 234.95 61.3672 232.418 59.0053C229.084 55.9195 225.747 52.8455 222.315 49.8682C219.218 47.1764 216.16 44.4456 213.114 41.6962C209.35 38.3006 205.565 34.9333 201.737 31.61C200.314 30.3667 198.902 29.1106 197.498 27.8457C196.769 27.1928 196.041 26.5398 195.29 25.8671C194.636 25.2752 193.981 24.6833 193.307 24.0735C191.431 22.4363 191.431 22.4363 188.405 21.6203C188.405 22.2998 188.405 22.9793 188.405 23.6793C186.965 25.1312 186.965 25.1312 184.93 26.8323C181.627 29.6412 178.367 32.4834 175.15 35.3903C174.288 36.1627 173.427 36.9351 172.54 37.7309C170.712 39.3901 168.903 41.0696 167.111 42.766C165.771 44.0201 165.771 44.0201 164.404 45.2996C163.601 46.064 162.798 46.8285 161.971 47.6161C159.232 49.6782 157.876 50.5363 154.43 50.4473C152.17 48.7734 150.391 47.2208 148.446 45.2353C147.364 44.1841 146.28 43.1358 145.193 42.0903C144.666 41.5797 144.139 41.0691 143.596 40.543C140.562 37.7069 137.218 35.349 133.84 32.9452C135.195 30.2344 136.244 30.1694 139.056 29.1166C143.72 27.3256 148.356 25.4786 152.979 23.5828C154.395 23.0048 155.811 22.427 157.227 21.8495C159.4 20.963 161.573 20.0758 163.745 19.1867C168.525 17.2308 173.313 15.2971 178.11 13.384C179.235 12.9314 180.361 12.4789 181.521 12.0126C182.52 11.6264 183.519 11.2402 184.548 10.8423C185.402 10.5085 186.256 10.1748 187.136 9.83089C189.748 9.18868 191.057 9.34923 193.553 10.2954Z" fill="#666667"/>
<path d="M106.042 93.6876C124.049 93.6876 142.055 93.6876 160.608 93.6876C160.608 97.4248 160.608 101.162 160.608 105.013C154.152 105.013 147.697 105.013 141.046 105.013C141.046 117.583 141.046 130.154 141.046 143.105C136.29 143.105 131.533 143.105 126.633 143.105C125.824 138.25 125.483 134.206 125.503 129.343C125.504 128.644 125.506 127.944 125.507 127.223C125.513 125.01 125.526 122.797 125.539 120.584C125.544 119.075 125.549 117.565 125.553 116.056C125.563 112.375 125.584 108.694 125.603 105.013C119.148 105.013 112.693 105.013 106.042 105.013C106.042 101.275 106.042 97.5381 106.042 93.6876Z" fill="#007DCE"/>
<path d="M48.3882 93.6876C65.3755 93.6876 82.3628 93.6876 99.865 93.6876C99.865 97.4248 99.865 101.162 99.865 105.013C93.7495 105.013 87.6341 105.013 81.3333 105.013C81.3333 117.583 81.3333 130.154 81.3333 143.105C76.5769 143.105 71.8204 143.105 66.9198 143.105C66.9198 130.535 66.9198 117.964 66.9198 105.013C60.8044 105.013 54.6889 105.013 48.3882 105.013C48.3882 101.275 48.3882 97.5381 48.3882 93.6876Z" fill="#007CCD"/>
<path d="M105.013 164.726C106.032 165.066 107.051 165.405 108.101 165.755C109.814 166.114 111.53 166.46 113.249 166.785C112.679 171.552 111.365 175.096 109.131 179.332C107.542 182.368 106.096 185.154 105.013 188.405C114.826 183.498 118.417 174.39 122.515 164.726C123.874 165.066 125.233 165.405 126.633 165.755C127.923 168.788 127.66 169.88 126.448 173.022C125.872 174.17 125.296 175.318 124.703 176.501C122.712 180.496 121.102 183.972 120.456 188.405C126.053 184.37 128.744 180.126 131.781 173.992C132.188 173.19 132.595 172.388 133.015 171.563C133.99 169.634 134.946 167.695 135.899 165.755C138.447 166.265 138.447 166.265 141.046 166.785C140.487 171.484 139.199 174.993 136.928 179.139C137.608 179.139 138.287 179.139 138.987 179.139C137.171 184.258 134.464 188.852 131.781 193.553C130.974 193.213 130.167 192.873 129.335 192.523C126.794 191.372 126.794 191.372 124.574 191.494C123.958 191.855 123.342 192.216 122.708 192.588C119.771 193.846 118.31 193.524 115.308 192.523C113.442 190.915 113.442 190.915 112.219 189.435C111.689 189.944 111.158 190.454 110.611 190.979C107.271 193.034 104.743 192.745 100.894 192.523C100.215 190.824 99.5355 189.126 98.8354 187.376C97.4977 188.618 97.4977 188.618 96.1329 189.885C93.0404 192.492 90.5662 193.261 86.481 193.553C84.1432 191.118 83.4162 189.583 82.8776 186.217C83.9553 177.865 88.0587 171.241 94.5886 165.972C98.2741 163.872 100.849 164.161 105.013 164.726Z" fill="#D8D7D3"/>
<path d="M259.443 61.7721C266.357 63.336 272.879 65.612 279.519 68.078C280.562 68.4615 281.605 68.8451 282.68 69.2402C285.231 70.1789 287.781 71.1213 290.329 72.0674C284.585 90.1844 284.585 90.1844 277.975 94.7172C275.192 95.3392 272.601 95.5559 269.738 95.7468C271.311 92.2093 273.444 89.4469 275.916 86.4809C275.151 87.2878 274.387 88.0947 273.599 88.9261C270.257 92.116 268.439 93.6063 263.818 93.8164C263.054 93.7739 262.29 93.7315 261.502 93.6877C261.502 88.8685 262.528 87.9007 265.62 84.4219C265.184 84.8797 264.747 85.3376 264.297 85.8093C262.405 87.6347 260.643 89.2001 258.413 90.5991C254.36 90.4704 254.36 90.4704 251.207 89.5696C251.95 88.8476 252.693 88.1256 253.459 87.3818C256.353 84.4963 258.923 81.4129 261.502 78.2447C260.78 79.0091 260.058 79.7735 259.314 80.5611C252.184 87.381 252.184 87.381 246.188 87.7679C245.126 87.6829 244.064 87.598 242.97 87.5105C242.97 84.4219 242.97 84.4219 244.366 83.0224C244.988 82.5499 245.611 82.0774 246.252 81.5907C252.909 76.128 256.238 69.6678 259.443 61.7721Z" fill="#0074C2"/>
<path d="M170.903 153.401C173.451 154.42 173.451 154.42 176.051 155.46C175.15 161.38 175.15 161.38 173.992 163.696C175.351 164.036 176.71 164.376 178.11 164.726C178.11 165.405 178.11 166.085 178.11 166.785C177.175 166.785 176.241 166.785 175.278 166.785C171.602 167.522 171.602 167.522 169.745 171.225C167.329 176.797 165.511 182.614 163.696 188.405C173.018 183.108 176.781 175.294 181.198 165.755C182.557 165.755 183.916 165.755 185.316 165.755C186.393 169.122 186.47 170.595 185.131 173.927C184.555 174.968 183.979 176.008 183.386 177.08C181.292 180.898 179.76 184.077 179.139 188.405C181.178 187.046 183.216 185.687 185.316 184.287C185.123 187.183 185.123 187.183 184.287 190.464C181.543 192.827 180.069 193.597 176.437 193.424C173.862 192.476 172.634 191.53 170.903 189.435C169.82 190.135 168.737 190.836 167.621 191.558C164.825 193.178 164 193.579 160.672 193.295C159.971 193.041 159.27 192.786 158.549 192.523C158.039 189.975 158.039 189.975 157.519 187.376C156.846 187.933 156.846 187.933 156.16 188.502C152.968 190.989 150.991 192.434 146.902 192.974C144.135 192.523 144.135 192.523 142.076 190.464C141.491 185.361 142.78 182.194 145.165 177.724C145.738 176.633 146.311 175.542 146.902 174.418C147.348 173.598 147.794 172.778 148.253 171.933C144.208 174.22 141.741 176.396 138.987 180.169C138.308 179.829 137.628 179.489 136.928 179.139C137.419 174.724 139.922 172.774 143.105 169.873C143.611 169.388 144.117 168.902 144.638 168.402C147.094 166.155 148.79 164.804 152.114 164.275C154.43 164.726 154.43 164.726 156.489 166.785C156.35 172.236 153.824 176.806 151.503 181.625C150.482 183.906 149.786 185.967 149.283 188.405C156.978 183.065 159.952 176.121 163.696 167.814C162.677 167.475 161.658 167.135 160.608 166.785C160.608 165.766 160.608 164.746 160.608 163.696C162.646 163.696 164.685 163.696 166.785 163.696C166.891 162.953 166.997 162.21 167.107 161.444C167.876 158.296 169.133 156.095 170.903 153.401Z" fill="#D6D6D2"/>
<path d="M303.713 0C306.457 5.48763 304.989 12.4434 303.134 18.0169C301.122 23.105 298.309 27.2409 295.087 31.6341C291.98 35.9904 289.997 39.8776 290.329 45.3639C291.097 49.9118 293.423 52.2742 296.506 55.5949C296.506 56.2744 296.506 56.9539 296.506 57.654C291.41 56.904 286.847 54.9802 282.093 53.0854C281.275 52.7636 280.458 52.4418 279.615 52.1102C278.043 51.4903 276.472 50.8666 274.902 50.2386C273.191 49.5618 271.466 48.9199 269.738 48.2876C267.679 47.3586 267.679 47.3586 266.65 45.2996C267.345 45.1363 268.041 44.9731 268.757 44.8049C274.549 43.3014 274.549 43.3014 279.455 40.0232C282.269 34.8442 283.758 29.6164 285.004 23.8603C286.864 15.3069 288.684 8.16623 295.477 2.05907C298.653 0.0799735 299.758 0 303.713 0Z" fill="#717172"/>
<path d="M83.9433 149.275C86.9229 151.441 88.2487 153.257 89.1393 156.843C89.5047 162.35 88.3371 166.622 85.1096 171.088C80.1806 176.467 75.5716 179.202 68.2711 179.59C65.3604 179.779 65.3604 179.779 62.8017 181.198C59.6237 185.772 58.1513 191.346 56.6245 196.641C54.9257 196.302 53.227 195.962 51.4768 195.612C51.1742 190.628 52.0744 187.297 54.0707 182.743C54.3376 182.126 54.6045 181.51 54.8795 180.875C55.7295 178.919 56.5951 176.97 57.461 175.021C58.031 173.713 58.6001 172.405 59.1681 171.096C61.622 165.471 64.1393 159.904 66.9198 154.43C69.4679 154.94 69.4679 154.94 72.0675 155.46C72.6374 160.019 71.1545 162.813 69.0714 166.713C67.4723 169.75 66.1806 172.883 64.8607 176.051C70.925 174.636 75.3239 172.895 79.1737 167.855C81.0903 164.294 81.9022 160.511 81.3333 156.49C79.6912 154.102 78.6592 153.496 75.8277 152.846C68.6818 152.62 64.3753 154.129 58.7237 158.524C55.7853 161.44 54.6658 163.86 53.5358 167.814C52.1769 167.475 50.8179 167.135 49.4177 166.785C48.6456 164.597 48.6456 164.597 48.3882 161.637C51.5319 155.076 56.8039 152.218 63.1033 149.17C69.5031 147.065 77.6295 146.804 83.9433 149.275Z" fill="#D6D5D2"/>
<path d="M242.97 166.785C244.72 171.84 242.903 175.288 240.718 179.847C240.037 181.32 239.357 182.793 238.679 184.267C238.35 184.978 238.02 185.688 237.68 186.42C236.562 188.924 235.647 191.483 234.734 194.068C232.487 199.803 228.732 205.029 223.349 208.176C220.8 209.222 218.935 209.276 216.202 208.996C215.183 208.316 214.164 207.637 213.114 206.937C212.792 203.848 212.792 203.848 213.114 200.76C213.793 200.08 214.473 199.401 215.173 198.701C217.361 199.087 217.361 199.087 219.291 199.73C218.951 201.089 218.612 202.448 218.262 203.848C222.976 202.34 224.563 198.554 226.755 194.454C227.129 193.776 227.504 193.097 227.889 192.399C228.808 190.73 229.714 189.054 230.616 187.376C229.979 188.055 229.342 188.735 228.686 189.435C226.498 191.494 226.498 191.494 224.439 191.494C224.439 190.814 224.439 190.135 224.439 189.435C223.759 189.095 223.08 188.755 222.38 188.405C221.59 182.217 223.232 179.015 226.86 174.008C230.927 169.034 236.319 164.322 242.97 166.785Z" fill="#D7D6D3"/>
<path d="M105.013 164.726C106.707 168.115 105.032 171.056 103.951 174.539C102.751 177.598 100.919 179.713 98.8354 182.228C98.8779 183.077 98.9204 183.927 98.9641 184.802C98.8354 187.376 98.8354 187.376 96.1329 190.207C93.0539 192.545 90.3678 193.275 86.481 193.553C84.1432 191.118 83.4162 189.583 82.8776 186.217C83.9564 177.857 88.0656 171.264 94.5765 165.969C98.207 163.918 100.935 164.216 105.013 164.726Z" fill="#D5D4D0"/>
<path d="M79.2743 61.7721C84.0307 61.7721 88.7872 61.7721 93.6878 61.7721C93.6878 67.208 93.6878 72.644 93.6878 78.2447C88.9313 78.2447 84.1749 78.2447 79.2743 78.2447C79.2743 72.8087 79.2743 67.3728 79.2743 61.7721Z" fill="#727273"/>
<path d="M95.7468 61.7721C100.164 61.7721 104.58 61.7721 109.131 61.7721C109.131 67.208 109.131 72.644 109.131 78.2447C104.714 78.2447 100.297 78.2447 95.7468 78.2447C95.7468 72.8087 95.7468 67.3728 95.7468 61.7721Z" fill="#7A7B7B"/>
<path d="M264.591 48.3882C271.428 50.5671 278.082 53.0905 284.731 55.788C285.671 56.1669 286.611 56.5458 287.58 56.9361C289.87 57.8593 292.159 58.785 294.447 59.7131C294.107 61.7516 293.768 63.79 293.418 65.8903C289.16 65.2942 285.448 64.325 281.457 62.7333C280.409 62.3186 279.36 61.9039 278.28 61.4766C277.203 61.0432 276.125 60.6099 275.015 60.1635C273.913 59.7262 272.812 59.2889 271.677 58.8384C268.969 57.7627 266.264 56.6814 263.561 55.5949C263.901 53.2167 264.241 50.8385 264.591 48.3882Z" fill="#616163"/>
<path d="M93.6877 43.2405C93.6877 48.6764 93.6877 54.1124 93.6877 59.713C89.271 59.713 84.8543 59.713 80.3037 59.713C79.6143 51.7158 79.6143 51.7158 82.6202 48.0021C86.6154 44.1885 88.1412 43.2405 93.6877 43.2405Z" fill="#7B7C7C"/>
<path d="M95.7468 43.2405C101.445 44.3801 104.575 45.8278 108.101 50.4472C109.001 53.6777 109.079 56.3172 109.131 59.713C104.714 59.713 100.297 59.713 95.7468 59.713C95.7468 54.2771 95.7468 48.8412 95.7468 43.2405Z" fill="#808181"/>
<path d="M101.924 167.814C102.943 168.154 103.963 168.494 105.013 168.844C104.136 176.077 99.3279 183.766 93.6878 188.405C92.3288 188.405 90.9698 188.405 89.5696 188.405C90.694 180.535 93.3555 175.646 98.8354 169.873C99.8547 169.194 100.874 168.514 101.924 167.814Z" fill="white"/>
<path d="M193.553 45.2994C199.151 46.4192 200.262 47.3087 203.848 51.4767C205.887 54.6811 205.907 55.6965 205.907 59.7129C201.83 59.7129 197.753 59.7129 193.553 59.7129C193.553 54.9565 193.553 50.2 193.553 45.2994Z" fill="#747475"/>
<path d="M235.764 167.814C236.167 172.966 235.223 175.588 232.353 179.847C231.72 180.807 231.087 181.766 230.435 182.755C227.467 186.803 227.467 186.803 225.468 188.405C224.449 188.405 223.43 188.405 222.38 188.405C221.59 182.221 223.232 179.025 226.848 174.016C231.936 167.814 231.936 167.814 235.764 167.814Z" fill="white"/>
<path d="M193.553 61.7721C197.29 61.7721 201.027 61.7721 204.878 61.7721C204.878 65.5093 204.878 69.2465 204.878 73.097C201.14 73.097 197.403 73.097 193.553 73.097C193.553 69.3598 193.553 65.6226 193.553 61.7721Z" fill="#767676"/>
<path d="M180.169 61.7721C183.906 61.7721 187.643 61.7721 191.494 61.7721C191.494 65.5093 191.494 69.2465 191.494 73.097C187.756 73.097 184.019 73.097 180.169 73.097C180.169 69.3598 180.169 65.6226 180.169 61.7721Z" fill="#777777"/>
<path d="M191.494 45.2994C191.494 50.0559 191.494 54.8123 191.494 59.7129C187.756 59.7129 184.019 59.7129 180.169 59.7129C180.594 54.2885 181.434 51.2404 185.316 47.3585C187.605 45.9447 188.813 45.2994 191.494 45.2994Z" fill="#7C7C7C"/>
<path d="M252.236 173.992C266.845 173.992 281.454 173.992 296.506 173.992C296.506 174.671 296.506 175.351 296.506 176.051C281.744 176.691 267.013 177.266 252.236 177.08C252.236 176.061 252.236 175.042 252.236 173.992Z" fill="#C0C0BE"/>
<path d="M0 173.992C14.6091 173.992 29.2182 173.992 44.27 173.992C44.27 175.011 44.27 176.03 44.27 177.08C29.5009 177.306 14.7549 176.632 0 176.051C0 175.371 0 174.692 0 173.992Z" fill="#C6C5C2"/>
<path d="M261.502 57.6541C267.194 58.3297 272.204 60.2022 277.524 62.2226C278.386 62.5444 279.248 62.8663 280.136 63.1979C284.24 64.7346 288.329 66.2977 292.388 67.9494C292.048 68.6289 291.709 69.3084 291.359 70.0085C286.094 69.3254 281.396 67.8081 276.43 66.019C275.675 65.7549 274.92 65.4908 274.142 65.2187C269.759 63.6583 265.625 61.8922 261.502 59.7131C261.502 59.0336 261.502 58.3541 261.502 57.6541Z" fill="#58595A"/>
<path d="M270.768 48.3882C276.298 50.1689 281.783 52.059 287.24 54.0506C288.96 54.6717 288.96 54.6717 290.715 55.3054C291.607 55.7407 292.499 56.176 293.418 56.6245C293.757 57.6437 294.097 58.6629 294.447 59.7131C285.756 56.9195 277.243 53.6827 268.709 50.4473C269.388 49.7678 270.068 49.0883 270.768 48.3882Z" fill="#0C0C0C"/>
<path d="M127.662 154.431C130.365 154.817 130.365 154.817 132.81 155.46C133.518 157.841 133.518 157.841 133.84 160.608C132.617 162.538 132.617 162.538 130.751 163.696C128.55 163.437 127.19 163.224 125.603 161.637C125.41 159.128 125.41 159.128 125.603 156.49C126.283 155.81 126.962 155.131 127.662 154.431Z" fill="#C6C6C2"/>
<path d="M189.628 154.752C190.243 154.986 190.859 155.219 191.494 155.46C192.201 157.841 192.201 157.841 192.523 160.608C191.301 162.538 191.301 162.538 189.435 163.696C187.182 163.375 187.182 163.375 185.316 162.667C184.609 160.286 184.609 160.286 184.287 157.519C185.915 154.948 186.564 154.314 189.628 154.752Z" fill="#CDCCC9"/>
<path d="M271.283 57.8469C272.233 58.2006 272.233 58.2006 273.203 58.5615C274.505 59.0459 275.804 59.5339 277.103 60.0256C279.914 61.0857 282.741 62.1029 285.567 63.1233C287.155 63.7019 288.742 64.2809 290.329 64.8606C289.31 65.5401 288.291 66.2196 287.24 66.9197C284.97 66.43 284.97 66.43 282.354 65.3915C281.407 65.0225 280.46 64.6536 279.485 64.2735C278.498 63.8727 277.511 63.4719 276.495 63.0589C275.512 62.6741 274.529 62.2892 273.517 61.8927C269.426 60.2783 265.413 58.6408 261.502 56.6243C265.607 55.2559 267.267 56.3321 271.283 57.8469Z" fill="#0F0F0F"/>
<path d="M261.502 57.6541C266.492 58.2626 270.364 59.692 274.886 61.7722C274.886 62.4517 274.886 63.1312 274.886 63.8313C269.766 63.3193 265.993 62.2324 261.502 59.7131C261.502 59.0336 261.502 58.3541 261.502 57.6541Z" fill="#5E5F60"/>
<path d="M261.502 76.1858C261.842 76.8653 262.182 77.5448 262.532 78.2449C261.425 79.5818 260.307 80.9099 259.186 82.2343C258.564 82.9749 257.943 83.7154 257.303 84.4784C255.355 86.4508 253.743 87.4741 251.207 88.5402C251.207 87.521 251.207 86.5017 251.207 85.4516C253.251 84.0575 255.313 82.6877 257.384 81.3335C259.775 78.6473 259.775 78.6473 261.502 76.1858Z" fill="#021826"/>
<path d="M294.447 9.26587C296.146 9.26587 297.845 9.26587 299.595 9.26587C299.255 10.9646 298.915 12.6633 298.565 14.4135C297.206 14.0738 295.847 13.7341 294.447 13.384C294.447 12.025 294.447 10.666 294.447 9.26587Z" fill="#090908"/>
<path d="M275.916 84.422C276.255 85.1015 276.595 85.781 276.945 86.4811C274.567 89.5388 272.189 92.5965 269.738 95.7469C269.399 95.0674 269.059 94.3879 268.709 93.6878C268.029 93.3481 267.35 93.0083 266.65 92.6583C267.605 92.0637 268.561 91.4692 269.545 90.8566C272.413 88.8322 274.049 87.3249 275.916 84.422Z" fill="#021B2B"/>
</svg>
